<svg width="18" height="15" viewBox="0 0 18 15" fill="none" xmlns="http://www.w3.org/2000/svg">
<path d="M1.64469 9.78382C0.954319 8.88714 0.609131 8.43799 0.609131 7.10679C0.609131 5.77477 0.954319 5.32724 1.64469 4.42975C3.02301 2.63965 5.33455 0.609131 8.7312 0.609131C12.1279 0.609131 14.4394 2.63965 15.8177 4.42975C16.5081 5.32805 16.8533 5.77558 16.8533 7.10679C16.8533 8.43881 16.5081 8.88633 15.8177 9.78382C14.4394 11.5739 12.1279 13.6044 8.7312 13.6044C5.33455 13.6044 3.02301 11.5739 1.64469 9.78382Z" stroke="#9CA3AF" stroke-width="1.21831"/>
<path d="M11.1679 7.10679C11.1679 7.75302 10.9112 8.37278 10.4543 8.82974C9.9973 9.28669 9.37753 9.54341 8.7313 9.54341C8.08507 9.54341 7.4653 9.28669 7.00835 8.82974C6.55139 8.37278 6.29468 7.75302 6.29468 7.10679C6.29468 6.46056 6.55139 5.84079 7.00835 5.38384C7.4653 4.92688 8.08507 4.67017 8.7313 4.67017C9.37753 4.67017 9.9973 4.92688 10.4543 5.38384C10.9112 5.84079 11.1679 6.46056 11.1679 7.10679Z" stroke="#9CA3AF" stroke-width="1.21831"/>
</svg>
