<svg width="22" height="23" viewBox="0 0 22 23" fill="none" xmlns="http://www.w3.org/2000/svg">
<g clip-path="url(#clip0_175_57)">
<mask id="mask0_175_57" style="mask-type:luminance" maskUnits="userSpaceOnUse" x="0" y="0" width="22" height="23">
<path d="M21.7427 9.12276H11.2106V13.4291H17.2624C17.1651 14.0385 16.9466 14.6381 16.6267 15.1848C16.2602 15.8111 15.8071 16.2879 15.3427 16.6511C13.9515 17.7389 12.3296 17.9613 11.2032 17.9613C8.35779 17.9613 5.92656 16.0847 4.98537 13.5348C4.94739 13.4423 4.92217 13.3467 4.89146 13.2522C4.68348 12.6032 4.56984 11.9159 4.56984 11.2015C4.56984 10.458 4.6929 9.74628 4.91727 9.07411C5.8023 6.42309 8.28834 4.44302 11.2053 4.44302C11.792 4.44302 12.357 4.51429 12.8928 4.65643C14.1172 4.98126 14.9834 5.62103 15.5141 6.12708L18.7165 2.92691C16.7685 1.10436 14.2291 2.75555e-09 11.1999 2.75555e-09C8.77833 -5.31842e-05 6.5426 0.769848 4.71049 2.07101C3.2247 3.12621 2.00615 4.539 1.18377 6.17979C0.418846 7.70114 0 9.38708 0 11.1998C0 13.0126 0.419486 14.716 1.18442 16.2233V16.2335C1.99237 17.8337 3.17388 19.2115 4.60987 20.2618C5.86437 21.1794 8.1138 22.4015 11.1999 22.4015C12.9747 22.4015 14.5476 22.075 15.9348 21.4631C16.9355 21.0217 17.8221 20.446 18.6249 19.706C19.6855 18.7283 20.5162 17.519 21.0832 16.1277C21.6502 14.7363 21.9535 13.1629 21.9535 11.4571C21.9535 10.6627 21.8753 9.85593 21.7427 9.12267V9.12276Z" fill="white"/>
</mask>
<g mask="url(#mask0_175_57)">
<g filter="url(#filter0_f_175_57)">
<path d="M-0.161621 11.2759C-0.14998 13.0601 0.348248 14.9009 1.1024 16.3869V16.3972C1.64731 17.4764 2.39205 18.3289 3.24029 19.1735L8.36345 17.266C7.39418 16.7636 7.24628 16.4558 6.55147 15.894C5.84143 15.1634 5.31224 14.3247 4.98268 13.3413H4.9694L4.98268 13.3311C4.76586 12.6816 4.74448 11.9923 4.73648 11.2759H-0.161621Z" fill="url(#paint0_radial_175_57)"/>
</g>
<g filter="url(#filter1_f_175_57)">
<path d="M11.2105 -0.0814819C10.7041 1.73378 10.8978 3.49828 11.2105 4.52494C11.7953 4.52538 12.3586 4.59651 12.8927 4.7382C14.1172 5.06304 14.9832 5.70282 15.5139 6.20887L18.7983 2.92694C16.8527 1.10657 14.5111 -0.0786139 11.2105 -0.0814819Z" fill="url(#paint1_radial_175_57)"/>
</g>
<g filter="url(#filter2_f_175_57)">
<path d="M11.1996 -0.0958252C8.71579 -0.09588 6.42267 0.693787 4.54353 2.02835C3.8458 2.52388 3.20551 3.09629 2.63537 3.73283C2.48601 5.16266 3.75346 6.92007 6.26341 6.90553C7.48122 5.46003 9.28233 4.52479 11.287 4.52479C11.2888 4.52479 11.2906 4.52494 11.2924 4.52495L11.2106 -0.0954981C11.2069 -0.0955005 11.2033 -0.0958252 11.1996 -0.0958252Z" fill="url(#paint2_radial_175_57)"/>
</g>
<g filter="url(#filter3_f_175_57)">
<path d="M19.3975 11.7932L17.1805 13.3473C17.0832 13.9568 16.8647 14.5563 16.5448 15.103C16.1783 15.7293 15.7252 16.2062 15.2608 16.5693C13.8725 17.6549 12.2548 17.8784 11.1287 17.8793C9.9648 19.9022 9.76074 20.9154 11.2106 22.548C13.0047 22.5466 14.5952 22.2162 15.9981 21.5974C17.0122 21.15 17.9107 20.5666 18.7242 19.8167C19.7991 18.8259 20.6411 17.6003 21.2157 16.1903C21.7903 14.7803 22.0975 13.1858 22.0975 11.4572L19.3975 11.7932Z" fill="url(#paint3_radial_175_57)"/>
</g>
<g filter="url(#filter4_f_175_57)">
<path d="M11.0469 8.95917V13.5927H21.7131C21.8069 12.9582 22.1172 12.137 22.1172 11.4572C22.1172 10.6628 22.039 9.69242 21.9064 8.95917H11.0469Z" fill="#3086FF"/>
</g>
<g filter="url(#filter5_f_175_57)">
<path d="M2.68631 3.56927C2.0281 4.30415 1.46578 5.12669 1.01992 6.01625C0.255009 7.5376 -0.163818 9.38713 -0.163818 11.1998C-0.163818 11.2254 -0.161746 11.2504 -0.161579 11.2759C0.177178 11.9387 4.51774 11.8117 4.73652 11.2759C4.73625 11.2509 4.73349 11.2265 4.73349 11.2014C4.73349 10.458 4.85658 9.90995 5.08096 9.23778C5.35775 8.40866 5.79114 7.64516 6.34534 6.98735C6.47097 6.82368 6.80607 6.47184 6.90383 6.2608C6.94108 6.18042 6.83622 6.1353 6.83036 6.107C6.8238 6.07536 6.68322 6.10081 6.65172 6.07724C6.55172 6.00239 6.3537 5.9633 6.23345 5.92856C5.97644 5.8543 5.55049 5.69054 5.31391 5.52079C4.56607 4.98419 3.39901 4.34324 2.68631 3.56927Z" fill="url(#paint4_radial_175_57)"/>
</g>
<g filter="url(#filter6_f_175_57)">
<path d="M5.33003 6.11019C7.06418 7.1821 7.56289 5.56914 8.71585 5.06441L6.71023 0.820404C5.97245 1.13682 5.2754 1.52994 4.62864 1.98926C3.66276 2.67523 2.80981 3.5123 2.10522 4.46491L5.33003 6.11019Z" fill="url(#paint5_radial_175_57)"/>
</g>
<g filter="url(#filter7_f_175_57)">
<path d="M6.03574 16.9382C3.70787 17.7957 3.34343 17.8265 3.12915 19.2986C3.53863 19.7063 3.97858 20.0835 4.4461 20.4254C5.7006 21.3431 8.11371 22.5651 11.1999 22.5651C11.2035 22.5651 11.2069 22.5648 11.2106 22.5648V17.7975C11.2082 17.7976 11.2056 17.7977 11.2032 17.7977C10.0476 17.7977 9.12408 17.488 8.17722 16.9494C7.94376 16.8166 7.52021 17.1732 7.30491 17.0137C7.00795 16.7939 6.2933 17.2032 6.03574 16.9382Z" fill="url(#paint6_radial_175_57)"/>
</g>
<g opacity="0.5" filter="url(#filter8_f_175_57)">
<path d="M9.84717 17.6473V22.4822C10.279 22.5338 10.7284 22.5651 11.1998 22.5651C11.6724 22.5651 12.1295 22.5403 12.5738 22.4948V17.6799C12.0759 17.7667 11.607 17.7976 11.2031 17.7976C10.7379 17.7976 10.2855 17.7424 9.84717 17.6473Z" fill="url(#paint7_linear_175_57)"/>
</g>
</g>
</g>
<defs>
<filter id="filter0_f_175_57" x="-0.377847" y="11.0597" width="8.9576" height="8.3301" filterUnits="userSpaceOnUse" color-interpolation-filters="sRGB">
<feFlood flood-opacity="0" result="BackgroundImageFix"/>
<feBlend mode="normal" in="SourceGraphic" in2="BackgroundImageFix" result="shape"/>
<feGaussianBlur stdDeviation="0.108113" result="effect1_foregroundBlur_175_57"/>
</filter>
<filter id="filter1_f_175_57" x="10.6829" y="-0.297708" width="8.33162" height="6.7228" filterUnits="userSpaceOnUse" color-interpolation-filters="sRGB">
<feFlood flood-opacity="0" result="BackgroundImageFix"/>
<feBlend mode="normal" in="SourceGraphic" in2="BackgroundImageFix" result="shape"/>
<feGaussianBlur stdDeviation="0.108113" result="effect1_foregroundBlur_175_57"/>
</filter>
<filter id="filter2_f_175_57" x="2.40731" y="-0.312051" width="9.1014" height="7.43389" filterUnits="userSpaceOnUse" color-interpolation-filters="sRGB">
<feFlood flood-opacity="0" result="BackgroundImageFix"/>
<feBlend mode="normal" in="SourceGraphic" in2="BackgroundImageFix" result="shape"/>
<feGaussianBlur stdDeviation="0.108113" result="effect1_foregroundBlur_175_57"/>
</filter>
<filter id="filter3_f_175_57" x="9.97274" y="11.2409" width="12.3409" height="11.5233" filterUnits="userSpaceOnUse" color-interpolation-filters="sRGB">
<feFlood flood-opacity="0" result="BackgroundImageFix"/>
<feBlend mode="normal" in="SourceGraphic" in2="BackgroundImageFix" result="shape"/>
<feGaussianBlur stdDeviation="0.108113" result="effect1_foregroundBlur_175_57"/>
</filter>
<filter id="filter4_f_175_57" x="10.8306" y="8.74294" width="11.5028" height="5.06603" filterUnits="userSpaceOnUse" color-interpolation-filters="sRGB">
<feFlood flood-opacity="0" result="BackgroundImageFix"/>
<feBlend mode="normal" in="SourceGraphic" in2="BackgroundImageFix" result="shape"/>
<feGaussianBlur stdDeviation="0.108113" result="effect1_foregroundBlur_175_57"/>
</filter>
<filter id="filter5_f_175_57" x="-0.380044" y="3.35305" width="7.50814" height="8.5898" filterUnits="userSpaceOnUse" color-interpolation-filters="sRGB">
<feFlood flood-opacity="0" result="BackgroundImageFix"/>
<feBlend mode="normal" in="SourceGraphic" in2="BackgroundImageFix" result="shape"/>
<feGaussianBlur stdDeviation="0.108113" result="effect1_foregroundBlur_175_57"/>
</filter>
<filter id="filter6_f_175_57" x="0.585069" y="-0.699751" width="9.65091" height="8.69037" filterUnits="userSpaceOnUse" color-interpolation-filters="sRGB">
<feFlood flood-opacity="0" result="BackgroundImageFix"/>
<feBlend mode="normal" in="SourceGraphic" in2="BackgroundImageFix" result="shape"/>
<feGaussianBlur stdDeviation="0.760078" result="effect1_foregroundBlur_175_57"/>
</filter>
<filter id="filter7_f_175_57" x="2.91292" y="16.7028" width="8.51375" height="6.07854" filterUnits="userSpaceOnUse" color-interpolation-filters="sRGB">
<feFlood flood-opacity="0" result="BackgroundImageFix"/>
<feBlend mode="normal" in="SourceGraphic" in2="BackgroundImageFix" result="shape"/>
<feGaussianBlur stdDeviation="0.108113" result="effect1_foregroundBlur_175_57"/>
</filter>
<filter id="filter8_f_175_57" x="9.63094" y="17.4311" width="3.15901" height="5.35021" filterUnits="userSpaceOnUse" color-interpolation-filters="sRGB">
<feFlood flood-opacity="0" result="BackgroundImageFix"/>
<feBlend mode="normal" in="SourceGraphic" in2="BackgroundImageFix" result="shape"/>
<feGaussianBlur stdDeviation="0.108113" result="effect1_foregroundBlur_175_57"/>
</filter>
<radialGradient id="paint0_radial_175_57" cx="0" cy="0" r="1" gradientTransform="matrix(-0.456195 -11.1559 16.4021 -0.669454 8.26089 19.0054)" gradientUnits="userSpaceOnUse">
<stop offset="0.141612" stop-color="#1ABD4D"/>
<stop offset="0.247515" stop-color="#6EC30D"/>
<stop offset="0.311547" stop-color="#8AC502"/>
<stop offset="0.366013" stop-color="#A2C600"/>
<stop offset="0.445673" stop-color="#C8C903"/>
<stop offset="0.540305" stop-color="#EBCB03"/>
<stop offset="0.615636" stop-color="#F7CD07"/>
<stop offset="0.699345" stop-color="#FDCD04"/>
<stop offset="0.771242" stop-color="#FDCE05"/>
<stop offset="0.860566" stop-color="#FFCE0A"/>
</radialGradient>
<radialGradient id="paint1_radial_175_57" cx="0" cy="0" r="1" gradientTransform="matrix(7.74745 -1.89999e-05 -1.08894e-05 9.99599 18.4911 5.97141)" gradientUnits="userSpaceOnUse">
<stop offset="0.408458" stop-color="#FB4E5A"/>
<stop offset="1" stop-color="#FF4540"/>
</radialGradient>
<radialGradient id="paint2_radial_175_57" cx="0" cy="0" r="1" gradientTransform="matrix(-10.8547 6.00633 8.15824 14.7159 14.2602 -1.54278)" gradientUnits="userSpaceOnUse">
<stop offset="0.231273" stop-color="#FF4541"/>
<stop offset="0.311547" stop-color="#FF4540"/>
<stop offset="0.457516" stop-color="#FF4640"/>
<stop offset="0.540305" stop-color="#FF473F"/>
<stop offset="0.699346" stop-color="#FF5138"/>
<stop offset="0.771242" stop-color="#FF5B33"/>
<stop offset="0.860566" stop-color="#FF6C29"/>
<stop offset="1" stop-color="#FF8C18"/>
</radialGradient>
<radialGradient id="paint3_radial_175_57" cx="0" cy="0" r="1" gradientTransform="matrix(-19.6854 -25.6728 -9.48541 7.25951 11.372 21.0981)" gradientUnits="userSpaceOnUse">
<stop offset="0.131546" stop-color="#0CBA65"/>
<stop offset="0.209784" stop-color="#0BB86D"/>
<stop offset="0.297297" stop-color="#09B479"/>
<stop offset="0.396257" stop-color="#08AD93"/>
<stop offset="0.477124" stop-color="#0AA6A9"/>
<stop offset="0.568425" stop-color="#0D9CC6"/>
<stop offset="0.667385" stop-color="#1893DD"/>
<stop offset="0.768727" stop-color="#258BF1"/>
<stop offset="0.858506" stop-color="#3086FF"/>
</radialGradient>
<radialGradient id="paint4_radial_175_57" cx="0" cy="0" r="1" gradientTransform="matrix(-1.39309 11.9962 16.6024 1.92437 10.2486 2.01996)" gradientUnits="userSpaceOnUse">
<stop offset="0.366013" stop-color="#FF4E3A"/>
<stop offset="0.457516" stop-color="#FF8A1B"/>
<stop offset="0.540305" stop-color="#FFA312"/>
<stop offset="0.615636" stop-color="#FFB60C"/>
<stop offset="0.771242" stop-color="#FFCD0A"/>
<stop offset="0.860566" stop-color="#FECF0A"/>
<stop offset="0.915033" stop-color="#FECF08"/>
<stop offset="1" stop-color="#FDCD01"/>
</radialGradient>
<radialGradient id="paint5_radial_175_57" cx="0" cy="0" r="1" gradientTransform="matrix(-4.02675 4.44929 -12.5612 -11.3469 8.28964 1.89554)" gradientUnits="userSpaceOnUse">
<stop offset="0.315904" stop-color="#FF4C3C"/>
<stop offset="0.603818" stop-color="#FF692C"/>
<stop offset="0.726837" stop-color="#FF7825"/>
<stop offset="0.884534" stop-color="#FF8D1B"/>
<stop offset="1" stop-color="#FF9F13"/>
</radialGradient>
<radialGradient id="paint6_radial_175_57" cx="0" cy="0" r="1" gradientTransform="matrix(-10.8547 -6.00633 8.15824 -14.7159 14.2602 23.944)" gradientUnits="userSpaceOnUse">
<stop offset="0.231273" stop-color="#0FBC5F"/>
<stop offset="0.311547" stop-color="#0FBC5F"/>
<stop offset="0.366013" stop-color="#0FBC5E"/>
<stop offset="0.457516" stop-color="#0FBC5D"/>
<stop offset="0.540305" stop-color="#12BC58"/>
<stop offset="0.699346" stop-color="#28BF3C"/>
<stop offset="0.771242" stop-color="#38C02B"/>
<stop offset="0.860566" stop-color="#52C218"/>
<stop offset="0.915033" stop-color="#67C30F"/>
<stop offset="1" stop-color="#86C504"/>
</radialGradient>
<linearGradient id="paint7_linear_175_57" x1="9.84717" y1="20.1062" x2="12.5738" y2="20.1062" gradientUnits="userSpaceOnUse">
<stop stop-color="#0FBC5C"/>
<stop offset="1" stop-color="#0CBA65"/>
</linearGradient>
<clipPath id="clip0_175_57">
<rect width="21.9535" height="22.4015" fill="white"/>
</clipPath>
</defs>
</svg>
